<?xml version="1.0" encoding="utf-8"?>
<!-- Generator: Adobe Illustrator 16.0.0, SVG Export Plug-In . SVG Version: 6.00 Build 0)  -->
<!DOCTYPE svg PUBLIC "-//W3C//DTD SVG 1.1//EN" "http://www.w3.org/Graphics/SVG/1.1/DTD/svg11.dtd">
<svg version="1.1" id="SIAE" xmlns="http://www.w3.org/2000/svg" xmlns:xlink="http://www.w3.org/1999/xlink" x="0px" y="0px"
	 width="333px" height="300px" viewBox="0 -25 333 300" enable-background="new 0 -25 333 300" xml:space="preserve">
<g>
	
		<radialGradient id="SVGID_1_" cx="5833.9785" cy="9941.9121" r="787.8289" gradientTransform="matrix(0.1422 0 0 0.1477 -679.8461 -1348.2928)" gradientUnits="userSpaceOnUse">
		<stop  offset="0" style="stop-color:#F7901F"/>
		<stop  offset="0.629" style="stop-color:#FDB719"/>
		<stop  offset="1" style="stop-color:#FFCD05"/>
	</radialGradient>
	<path fill="url(#SVGID_1_)" stroke="#F89838" stroke-miterlimit="10" d="M208.644,215.478
		c-16.729,0.006-179.393,0.046-182.034,0.046c-2.768,0-5.957-2.894-5.957-6.184c0-3.311,0-174.285,0-178.824
		c0-2.894,3.189-5.79,5.957-5.79c2.787,0,243.482,0,246.672,0c2.786,0,5.556,2.479,5.556,5.79c0,7.032,0,151.232,0,151.232
		s-0.076,1.875-1.323,1.875c-1.031,0-13.272-0.022-17.442-0.032c-1.843-0.005-1.381,1.391-1.381,1.391v6.93
		c0,0-0.464,1.292,1.381,1.292c2.669,0,8.334,0,9.077,0c0.979,0,0.954,1.663,0.954,1.663v2.444c0,0-0.103,1.563-1.084,1.563
		c-0.752,0-6.396,0-8.947,0c-1.664,0-1.514,1.537-1.514,1.537v8.041c0,0-0.118,1.169,1.428,1.169c3.854,0,16.077,0,17.35,0
		c1.512,0,1.502,1.144,1.502,1.144v3.511c0,0-0.076,1.255-1.411,1.255c-1.321,0-22.426,0-23.396,0c-0.984,0-1.037-1.159-1.037-1.159
		v-35.488c0,0-0.029-1.339,1.212-1.339c1.243,0,16.497,0,17.621,0c1.329,0,1.462-1.433,1.462-1.433s0-125.167,0-143.115
		c0-1.621-1.605-2.478-1.605-2.478H28.618c0,0-2.005,0.724-2.005,2.062c0,18.072,0,150.583,0,174.418
		c0,2.414,2.404,2.619,2.404,2.619s157.625,0,173.485,0c1.709,0,1.283-1.252,1.283-1.252v-8.69c0,0,0.428-1.123-1.283-1.129
		c-2.275-0.012-6.991-0.031-9.252-0.04c-1.684-0.007-1.265-1.328-1.265-1.328l-0.04-18.296c0,0-0.351-1.339,1.037-1.339
		c3.08,0,12.148,0,15.665,0c1.877,0,1.393,1.246,1.393,1.246l-0.017,3.514c0,0,0.387,1.102-1.197,1.093
		c-2.32-0.013-7.414-0.042-9.876-0.055c-1.843-0.014-1.395,1.272-1.395,1.272s-0.02,3.884-0.023,6.28
		c0,0.03-0.006,0.095-0.006,0.095s-0.509,1.45,1.508,1.448c2.48-0.017,7.369-0.025,9.698-0.038c1.729-0.005,1.296,1.555,1.296,1.555
		v20.326C210.028,214.271,210.491,215.478,208.644,215.478z"/>
	
		<radialGradient id="SVGID_2_" cx="6322.2148" cy="10460.2813" r="92.2612" gradientTransform="matrix(0.1422 0 0 0.1477 -679.8461 -1348.2928)" gradientUnits="userSpaceOnUse">
		<stop  offset="0" style="stop-color:#FDB719"/>
		<stop  offset="1" style="stop-color:#FFCD05"/>
	</radialGradient>
	<path fill="url(#SVGID_2_)" stroke="#F89838" stroke-miterlimit="10" d="M216.236,178.695v35.576c0,0,0.06,1.241,1.395,1.241
		c1.33,0,1.954-0.025,3.375-0.025c1.429,0,1.469-1.023,1.469-1.023v-35.578c0,0,0.135-1.361-1.377-1.361
		c-1.513,0-2.139,0.019-3.558,0.019C216.117,177.535,216.236,178.695,216.236,178.695z"/>
	
		<radialGradient id="SVGID_3_" cx="285.3672" cy="-214.7144" r="19.7499" gradientTransform="matrix(0.7362 0 0 -0.7644 27.5559 32.3735)" gradientUnits="userSpaceOnUse">
		<stop  offset="0" style="stop-color:#FDB719"/>
		<stop  offset="1" style="stop-color:#FFCD05"/>
	</radialGradient>
	<path fill="url(#SVGID_3_)" stroke="#F89838" stroke-miterlimit="10" d="M233.875,177.541l7.865-0.047c0,0,5.269,0,5.269,5.12
		c0,4.713,0,31.75,0,31.75s-0.106,1.145-1.263,1.145c-1.151,0-1.859-0.022-2.67-0.022c-0.807,0-1.24-1.121-1.24-1.121
		s0.031-12.291,0.031-13.95c0-1.666-1.373-1.521-1.373-1.521l-5.692,0.029c0,0-1.431-0.175-1.431,1.486
		c0,1.664-0.038,13.952-0.038,13.952s0.314,1.104-1.465,1.104c-1.784,0-1.158,0-2.403,0c-1.243,0-1.186-1.202-1.186-1.202
		s0.021-26.374,0.021-31.774C228.213,177.494,233.875,177.541,233.875,177.541z M233.538,185.622c0-0.832-0.027,6.289-0.027,6.289
		s-0.03,1.293,1.202,1.293c1.238,0,4.541,0,5.788,0c1.244,0,1.396-1.293,1.396-1.293s0-5.646,0-6.308
		c0-0.925-0.24-3.472-2.021-3.472c-1.778,0-2.103,0.02-4.415,0.02C233.146,182.151,233.538,186.732,233.538,185.622z"/>
	
		<radialGradient id="SVGID_4_" cx="169.2158" cy="-113.4502" r="94.549" gradientTransform="matrix(0.7362 0 0 -0.7644 27.5559 32.3735)" gradientUnits="userSpaceOnUse">
		<stop  offset="0" style="stop-color:#F7901F"/>
		<stop  offset="0.629" style="stop-color:#FDB719"/>
		<stop  offset="1" style="stop-color:#FFCD05"/>
	</radialGradient>
	<path fill="url(#SVGID_4_)" stroke="#F89838" stroke-miterlimit="10" d="M90.264,120.126l60.085-80.531l63.652,80.531
		l-63.652,78.468L90.264,120.126z M150.349,187.453l54.509-67.329l-54.509-68.557l-51.321,68.557L150.349,187.453z"/>
	
		<radialGradient id="SVGID_5_" cx="5476.2334" cy="9786.5996" r="354.3555" gradientTransform="matrix(0.1422 0 0 0.1477 -679.8461 -1348.2928)" gradientUnits="userSpaceOnUse">
		<stop  offset="0" style="stop-color:#6699CC"/>
		<stop  offset="1" style="stop-color:#293688"/>
	</radialGradient>
	<path fill="url(#SVGID_5_)" stroke="#0F1031" stroke-miterlimit="10" d="M32.589,123.832
		c1.582-67.723,104.088-66.211,122.378-23.688c4.02-0.126,10.501-0.419,10.501-0.419l-14.32,18.34l-17.108-17.766
		c0,0,5.152,0,10.327,0.418c-28.237-26.844-77.168-14.869-89.501,22.722c-2.788-2.895-7.562-11.976-7.562-11.976
		S34.573,121.768,32.589,123.832z"/>
	
		<radialGradient id="SVGID_6_" cx="6214.2344" cy="10091.2129" r="352.0983" gradientTransform="matrix(0.1422 0 0 0.1477 -679.8461 -1348.2928)" gradientUnits="userSpaceOnUse">
		<stop  offset="0" style="stop-color:#6699CC"/>
		<stop  offset="1" style="stop-color:#293688"/>
	</radialGradient>
	<path fill="url(#SVGID_6_)" stroke="#0F1031" stroke-miterlimit="10" d="M161.878,113.524c-2.387,3.29-9.546,13.618-9.546,13.618
		s-9.542-8.66-13.51-13.618c-3.994,62.35,93.873,78.051,120.928,24.367c3.188-0.416,9.541,0,9.541,0l-14.724-16.93l-15.501,16.097
		c0,0,7.561,0.417,10.33,0.417C233.09,157.299,172.627,164.316,161.878,113.524z"/>
	
		<radialGradient id="SVGID_7_" cx="6183.0254" cy="9793.6563" r="348.3905" gradientTransform="matrix(0.1422 0 0 0.1477 -679.8461 -1348.2928)" gradientUnits="userSpaceOnUse">
		<stop  offset="0" style="stop-color:#D07A19"/>
		<stop  offset="0.629" style="stop-color:#E2A019"/>
		<stop  offset="1" style="stop-color:#FAAD19"/>
	</radialGradient>
	<path fill="url(#SVGID_7_)" stroke="#F89838" stroke-miterlimit="10" d="M134.329,102.304l16.822,15.759l14.318-16.273
		c0,0-5.531,0.258-9.947,0.155c24.667-28.905,78.772-16.097,87.517,22.721c2.788-2.897,9.548-14.035,9.548-14.035
		s7.159,7.437,11.93,13.619c5.977-56.582-88.323-73.459-121.733-21.858C138.411,102.391,134.329,102.304,134.329,102.304z"/>
	
		<radialGradient id="SVGID_8_" cx="5451.7676" cy="10079.1543" r="359.4253" gradientTransform="matrix(0.1422 0 0 0.1477 -679.8461 -1348.2928)" gradientUnits="userSpaceOnUse">
		<stop  offset="0" style="stop-color:#D07A19"/>
		<stop  offset="0.629" style="stop-color:#E2A019"/>
		<stop  offset="1" style="stop-color:#FAAD19"/>
	</radialGradient>
	<path fill="url(#SVGID_8_)" stroke="#F89838" stroke-miterlimit="10" d="M43.717,122.188l-15.104,14.873c0,0,1.988,0,8.744,0.411
		c37.001,54.109,130.094,32.635,124.92-25.614c-5.976,7.039-12.735,14.869-12.735,14.869s-5.956-7.433-11.129-13.62
		c-1.206,25.199-47.349,61.122-88.72,23.95c4.774,0.415,10.349-0.417,10.349-0.417L43.717,122.188z"/>
	
		<radialGradient id="SVGID_9_" cx="5458.0225" cy="9940.3086" r="79.3827" gradientTransform="matrix(0.1422 0 0 0.1477 -679.8461 -1348.2928)" gradientUnits="userSpaceOnUse">
		<stop  offset="0.1576" style="stop-color:#FEF058"/>
		<stop  offset="1" style="stop-color:#FDB719"/>
	</radialGradient>
	<path fill="url(#SVGID_9_)" d="M94.636,107.756c15.815-2.28,16.705,22.064,3.586,23.948
		C82.429,133.941,81.543,109.597,94.636,107.756z"/>
	
		<radialGradient id="SVGID_10_" cx="5835.6426" cy="9450.8672" r="79.4696" gradientTransform="matrix(0.1422 0 0 0.1477 -679.8461 -1348.2928)" gradientUnits="userSpaceOnUse">
		<stop  offset="0.1576" style="stop-color:#FEF058"/>
		<stop  offset="1" style="stop-color:#FDB719"/>
	</radialGradient>
	<path fill="url(#SVGID_10_)" d="M148.341,35.472c15.839-2.258,16.704,22.063,3.59,23.948
		C136.136,61.679,135.247,37.336,148.341,35.472z"/>
	
		<radialGradient id="SVGID_11_" cx="6238.375" cy="9943.0645" r="79.4951" gradientTransform="matrix(0.1422 0 0 0.1477 -679.8461 -1348.2928)" gradientUnits="userSpaceOnUse">
		<stop  offset="0.1576" style="stop-color:#FEF058"/>
		<stop  offset="1" style="stop-color:#FDB719"/>
	</radialGradient>
	<path fill="url(#SVGID_11_)" d="M205.637,108.15c15.814-2.258,16.682,22.086,3.567,23.971
		C193.43,134.357,192.541,110.015,205.637,108.15z"/>
	
		<radialGradient id="SVGID_12_" cx="5832.8262" cy="10440.748" r="79.4142" gradientTransform="matrix(0.1422 0 0 0.1477 -679.8461 -1348.2928)" gradientUnits="userSpaceOnUse">
		<stop  offset="0.1576" style="stop-color:#FEF058"/>
		<stop  offset="1" style="stop-color:#FDB719"/>
	</radialGradient>
	<path fill="url(#SVGID_12_)" d="M147.941,181.663c15.839-2.281,16.706,22.062,3.59,23.947
		C135.733,207.847,134.846,183.525,147.941,181.663z"/>
</g>
</svg>
