<?xml version="1.0" encoding="utf-8"?>
<!-- Generator: Adobe Illustrator 16.0.0, SVG Export Plug-In . SVG Version: 6.00 Build 0)  -->
<!DOCTYPE svg PUBLIC "-//W3C//DTD SVG 1.1//EN" "http://www.w3.org/Graphics/SVG/1.1/DTD/svg11.dtd">
<svg version="1.1"
	 id="svg3352" xmlns:sodipodi="http://sodipodi.sourceforge.net/DTD/sodipodi-0.dtd" xmlns:svg="http://www.w3.org/2000/svg" xmlns:dc="http://purl.org/dc/elements/1.1/" xmlns:inkscape="http://www.inkscape.org/namespaces/inkscape" xmlns:rdf="http://www.w3.org/1999/02/22-rdf-syntax-ns#" xmlns:cc="http://creativecommons.org/ns#" inkscape:version="0.91 r13725" sodipodi:docname="escudo_dgae.svg"
	 xmlns="http://www.w3.org/2000/svg" xmlns:xlink="http://www.w3.org/1999/xlink" x="0px" y="0px" width="333px" height="300px"
	 viewBox="0 0 333 300" enable-background="new 0 0 333 300" xml:space="preserve">
<sodipodi:namedview  pagecolor="#ffffff" bordercolor="#666666" inkscape:zoom="1.01" inkscape:cx="227.22721" borderopacity="1.0" id="base" inkscape:cy="423.98162" showgrid="false" inkscape:current-layer="layer1" inkscape:window-height="1057" inkscape:document-units="px" inkscape:window-x="-8" inkscape:pageopacity="0.0" inkscape:window-width="1920" inkscape:window-y="-8" inkscape:pageshadow="2" inkscape:window-maximized="1">
	</sodipodi:namedview>
<g id="layer1" inkscape:label="Capa 1" inkscape:groupmode="layer">
	<g>
		
			<linearGradient id="SVGID_1_" gradientUnits="userSpaceOnUse" x1="-239.1221" y1="991.5977" x2="-184.5427" y2="937.0184" gradientTransform="matrix(1 0 0 1 248.7998 -867.8008)">
			<stop  offset="0" style="stop-color:#6699CC"/>
			<stop  offset="0" style="stop-color:#293688"/>
			<stop  offset="1" style="stop-color:#6395C9"/>
		</linearGradient>
		<path fill="url(#SVGID_1_)" stroke="#3F4F9E" stroke-miterlimit="10" d="M18.009,60.365h16.183
			c10.431,0,18.181,1.295,23.249,3.878c5.07,2.584,9.246,6.79,12.527,12.611c3.283,5.822,4.924,12.619,4.924,20.392
			c0,5.53-0.917,10.612-2.754,15.247s-4.371,8.482-7.604,11.537c-3.233,3.057-6.736,5.171-10.502,6.341
			c-3.769,1.171-10.3,1.757-19.592,1.757h-16.43V60.365z M31.57,73.538v45.272h6.341c6.246,0,10.771-0.717,13.587-2.15
			c2.812-1.432,5.114-3.842,6.902-7.228c1.789-3.386,2.684-7.554,2.684-12.504c0-7.618-2.128-13.527-6.389-17.726
			c-3.838-3.776-10.003-5.665-18.49-5.665H31.57L31.57,73.538z"/>
		
			<linearGradient id="SVGID_2_" gradientUnits="userSpaceOnUse" x1="-150.3047" y1="990.9883" x2="-95.5326" y2="936.2164" gradientTransform="matrix(1 0 0 1 248.7998 -867.8008)">
			<stop  offset="0" style="stop-color:#6699CC"/>
			<stop  offset="0" style="stop-color:#293688"/>
			<stop  offset="1" style="stop-color:#6395C9"/>
		</linearGradient>
		<path fill="url(#SVGID_2_)" stroke="#3F4F9E" stroke-miterlimit="10" d="M156.86,72.073l-9.619,9.514
			c-6.086-6.439-13.184-9.659-21.287-9.659c-7.064,0-12.981,2.342-17.75,7.025c-4.77,4.682-7.152,10.374-7.152,17.074
			c0,6.928,2.475,12.799,7.421,17.612c4.947,4.813,11.053,7.218,18.313,7.218c4.724,0,8.702-0.99,11.938-2.976
			c3.243-1.983,5.852-5.088,7.839-9.316h-20.781V95.736h36.1l0.099,3.023c0,6.277-1.628,12.228-4.878,17.855
			c-3.25,5.625-7.46,9.92-12.635,12.877c-5.173,2.96-11.237,4.439-18.198,4.439c-7.45,0-14.092-1.618-19.928-4.854
			c-5.839-3.235-10.455-7.845-13.855-13.83c-3.399-5.983-5.098-12.439-5.098-19.366c0-9.498,3.139-17.756,9.417-24.784
			c7.448-8.358,17.137-12.537,29.074-12.537c6.248,0,12.082,1.154,17.515,3.463C147.982,63.975,152.47,67.325,156.86,72.073z"/>
		
			<linearGradient id="SVGID_3_" gradientUnits="userSpaceOnUse" x1="-71.1025" y1="1006.1875" x2="-14.4584" y2="949.5433" gradientTransform="matrix(1 0 0 1 248.7998 -867.8008)">
			<stop  offset="0" style="stop-color:#6699CC"/>
			<stop  offset="0" style="stop-color:#293688"/>
			<stop  offset="1" style="stop-color:#6395C9"/>
		</linearGradient>
		<path fill="url(#SVGID_3_)" stroke="#3F4F9E" stroke-miterlimit="10" d="M199.11,60.365h13.853l27.604,71.762h-14.194
			l-5.618-14.783h-29.283l-5.839,14.783h-14.195L199.11,60.365z M206.123,79.391l-9.626,24.637h19.197L206.123,79.391z"/>
		
			<linearGradient id="SVGID_4_" gradientUnits="userSpaceOnUse" x1="-3.0757" y1="991.7773" x2="52.3903" y2="936.3112" gradientTransform="matrix(1 0 0 1 248.7998 -867.8008)">
			<stop  offset="0" style="stop-color:#6699CC"/>
			<stop  offset="0" style="stop-color:#293688"/>
			<stop  offset="1" style="stop-color:#6395C9"/>
		</linearGradient>
		<path fill="url(#SVGID_4_)" stroke="#3F4F9E" stroke-miterlimit="10" d="M253.87,60.365h39.175v13.367h-25.611v12.976h25.611
			v13.123h-25.611v18.877h25.611v13.416h-39.173V60.365H253.87z"/>
	</g>
	<g>
		
			<linearGradient id="SVGID_5_" gradientUnits="userSpaceOnUse" x1="-239.7944" y1="1085.333" x2="-185.4155" y2="1030.9539" gradientTransform="matrix(1 0 0 1 248.7998 -867.8008)">
			<stop  offset="0" style="stop-color:#F7901F"/>
			<stop  offset="0.4" style="stop-color:#FDB719"/>
			<stop  offset="1" style="stop-color:#FFCD05"/>
		</linearGradient>
		<path fill="url(#SVGID_5_)" stroke="#F89838" stroke-miterlimit="10" d="M11.917,160.275h13.708v46.406
			c0,3.998,0.35,6.828,1.051,8.484c0.697,1.659,1.855,2.98,3.465,3.971s3.553,1.491,5.83,1.491c2.406,0,4.479-0.556,6.22-1.66
			c1.74-1.102,2.943-2.511,3.608-4.216c0.668-1.706,1.002-4.961,1.002-9.775v-44.699h13.709v42.784
			c0,7.223-0.408,12.228-1.22,15.022c-0.814,2.798-2.367,5.497-4.659,8.1c-2.294,2.603-4.937,4.529-7.927,5.78
			c-2.993,1.253-6.472,1.879-10.441,1.879c-5.204,0-9.732-1.195-13.587-3.587c-3.854-2.392-6.61-5.382-8.268-8.978
			c-1.658-3.593-2.487-9.668-2.487-18.22L11.917,160.275L11.917,160.275z"/>
		
			<linearGradient id="SVGID_6_" gradientUnits="userSpaceOnUse" x1="-175.9644" y1="1096.2637" x2="-111.3512" y2="1031.6503" gradientTransform="matrix(1 0 0 1 248.7998 -867.8008)">
			<stop  offset="0" style="stop-color:#F7901F"/>
			<stop  offset="0.4" style="stop-color:#FDB719"/>
			<stop  offset="1" style="stop-color:#FFCD05"/>
		</linearGradient>
		<path fill="url(#SVGID_6_)" stroke="#F89838" stroke-miterlimit="10" d="M76.408,160.275H89.51l30.704,47.222v-47.222h13.66v71.76
			h-13.142l-30.665-47.076v47.076H76.408V160.275L76.408,160.275z"/>
		
			<linearGradient id="SVGID_7_" gradientUnits="userSpaceOnUse" x1="-98.0542" y1="1106.0996" x2="-41.4093" y2="1049.4548" gradientTransform="matrix(1 0 0 1 248.7998 -867.8008)">
			<stop  offset="0" style="stop-color:#F7901F"/>
			<stop  offset="0.4" style="stop-color:#FDB719"/>
			<stop  offset="1" style="stop-color:#FFCD05"/>
		</linearGradient>
		<path fill="url(#SVGID_7_)" stroke="#F89838" stroke-miterlimit="10" d="M172.159,160.275h13.853l27.604,71.76h-14.201
			l-5.616-14.78h-29.281l-5.84,14.78h-14.195L172.159,160.275z M179.169,179.301l-9.63,24.635h19.198L179.169,179.301z"/>
		
			<linearGradient id="SVGID_8_" gradientUnits="userSpaceOnUse" x1="-23.8013" y1="1106.1279" x2="48.3086" y2="1034.0184" gradientTransform="matrix(1 0 0 1 248.7998 -867.8008)">
			<stop  offset="0" style="stop-color:#F7901F"/>
			<stop  offset="0.4" style="stop-color:#FDB719"/>
			<stop  offset="1" style="stop-color:#FFCD05"/>
		</linearGradient>
		<path fill="url(#SVGID_8_)" stroke="#F89838" stroke-miterlimit="10" d="M231.135,160.275h13.309l16.635,50.052l16.786-50.052
			h13.302l12.037,71.76h-13.21l-7.693-45.32l-15.244,45.32h-12.04l-15.111-45.32l-7.879,45.32h-13.319L231.135,160.275z"/>
	</g>
	
		<radialGradient id="rect3366_1_" cx="-90.9629" cy="1013.0332" r="105.8271" gradientTransform="matrix(1 0 0 1 248.7998 -867.8008)" gradientUnits="userSpaceOnUse">
		<stop  offset="0" style="stop-color:#FFCD05"/>
		<stop  offset="0.6" style="stop-color:#FDB719"/>
		<stop  offset="1" style="stop-color:#F7901F"/>
	</radialGradient>
	
		<rect id="rect3366" x="8.221" y="141.522" fill="url(#rect3366_1_)" stroke="#F89838" stroke-miterlimit="10" width="299.232" height="7.419"/>
	<g>
		<text transform="matrix(1 0 0 1 306.6797 241.8701)" fill="#F89838" font-family="'ArialMT'" font-size="31.2215">®</text>
	</g>
</g>
</svg>
